<?xml version="1.0" encoding="utf-8"?>
<!-- Generator: Adobe Illustrator 21.1.0, SVG Export Plug-In . SVG Version: 6.00 Build 0)  -->
<svg version="1.1" id="Capa_1" xmlns="http://www.w3.org/2000/svg" xmlns:xlink="http://www.w3.org/1999/xlink" x="0px" y="0px"
	 viewBox="0 0 522.5 522.5" style="enable-background:new 0 0 522.5 522.5;" xml:space="preserve">
<style type="text/css">
	.st0{fill:#FFFFFF;}
</style>
<g>
	<path class="st0" d="M511.6,217.7h-62.2c-4.4-17.2-9.9-36.3-16.9-50.8l44.2-44.2c2-2,3.2-4.8,3.2-7.7c0-2.9-1.2-5.7-3.2-7.7
		l-61.6-61.5c-4.2-4.3-11.1-4.3-15.4,0L355.5,90C341,82.9,321.9,77.4,304.8,73V10.9c0-6-4.9-10.9-10.9-10.9h-65.3
		c-6,0-10.9,4.9-10.9,10.9V73c-17.2,4.4-36.3,9.9-50.7,16.9l-44.3-44.2c-4.2-4.3-11.1-4.3-15.4,0l-61.6,61.5
		c-4.2,4.2-4.2,11.1,0,15.4L90,166.9c-7,14.4-12.6,33.5-17,50.7H10.9c-6,0-10.9,4.9-10.9,10.9v65.3c0,6,4.9,10.9,10.9,10.9H73
		c4.4,17.2,9.9,36.3,17,50.8l-44.3,44.3c-2,2-3.2,4.8-3.2,7.7c0,2.9,1.2,5.7,3.2,7.7l61.6,61.6c4.1,4.1,11.3,4.1,15.4,0l44.3-44.2
		c14.4,7,33.5,12.6,50.8,16.9v62.1c0,6,4.9,10.9,10.9,10.9h65.3c6,0,10.9-4.9,10.9-10.9v-62.1c17.2-4.4,36.3-9.9,50.7-16.9
		l44.3,44.2c4.2,4.2,11.1,4.2,15.4,0l61.6-61.6c4.2-4.2,4.2-11.1,0-15.4l-44.2-44.3c7-14.5,12.6-33.5,16.9-50.8h62.1
		c6,0,10.9-4.9,10.9-10.9v-65.3C522.5,222.6,517.6,217.7,511.6,217.7z M261.2,348.3c-48,0-87.1-39.1-87.1-87.1s39.1-87.1,87.1-87.1
		s87.1,39.1,87.1,87.1S309.3,348.3,261.2,348.3z"/>
</g>
</svg>
