<svg style="display:none">
	<symbol id="icon-1" x="0px" y="0px" viewBox="0 0 50 50" style="enable-background:new 0 0 50 50;" xml:space="preserve">
		<style type="text/css">
		.st0{fill:#FFFFFF;}
		</style>
		<path id="VK_1_" class="st0" d="M26,34c1,0,1-1.4,1-2c0-1,1-2,2-2s2.7,1.7,4,3c1,1,1,1,2,1s3,0,3,0s2-0.1,2-2c0-0.6-0.7-1.7-3-4
		c-2-2-3-1,0-5c1.8-2.5,3.2-4.7,3-5.3c-0.2-0.6-5.3-1.6-6-0.7c-2,3-2.4,3.7-3,5c-1,2-1.1,3-2,3s-1-1.9-1-3c0-3.3,0.5-5.6-1-6
		c0,0-2,0-3,0c-1.6,0-3,1-3,1s-1.2,1-1,1c0.3,0,2-0.4,2,1c0,1,0,2,0,2s0,4-1,4s-3-4-5-7c-0.8-1.2-1-1-2-1c-1.1,0-2,0-3,0
		s-1.1,0.6-1,1c2,5,3.4,8.1,7.2,12.1c3.5,3.6,5.8,3.8,7.8,3.9C25.5,34,25,34,26,34z"/>
		<path class="st0" d="M25,1C11.7,1,1,11.7,1,25s10.7,24,24,24s24-10.7,24-24S38.3,1,25,1z M25,44C14.5,44,6,35.5,6,25S14.5,6,25,6
		s19,8.5,19,19S35.5,44,25,44z"/>
	</symbol>
	<symbol id="icon-2" viewBox="0 0 32 32" style="enable-background:new 0 0 32 32;" xml:space="preserve">
		<style type="text/css">
		.st0{fill:#FFFFFF;}
		</style>
		<g id="surface1">
			<path class="st0" d="M6.5,5L5,9v16h5.5v3h3l3-3H21l6-6V5H6.5z M9,7h16v11l-3,3h-6l-3,3v-3H9V7z M14,11v6h2v-6H14z M19,11v6h2v-6H19
		z"/>
		</g>
	</symbol>
	<symbol id="icon-3" viewBox="0 0 32 32" style="enable-background:new 0 0 32 32;" xml:space="preserve">
		<style type="text/css">
		.st0{fill:#FFFFFF;}
		</style>
		<g id="surface1">
			<path class="st0" d="M12.5,3c0,0-2.3,0-4.4,0.4C6.6,3.6,6.6,4.3,6.4,4.9l-1.4,6.4C3.9,11.9,3,13.1,3,14.5C3,16.4,4.6,18,6.5,18
			s3.5-1.6,3.5-3.5c0-1.4-0.8-2.6-2-3.1V4.5C8,4.5,9.8,4,12.5,4H13c7.8,0,14,5.4,14,12s-6.3,12-14,12h-0.5c-2,0-3.7-0.3-5.4-0.9
			c-0.2,0.1-0.6,0.3-0.8,0.4C8.9,29.1,13,29,13,29h0.4c0.5,0,0.9,0,1.4-0.1C22.8,28.2,29,22.7,29,16C29,8.8,22,3,12.5,3z M10,5l0,6
			c2.1,1.5,3,4.4,3,6.6c0,4-1.4,6-2.4,7.1c3.1,0.6,4,0.1,4.3-0.4C15,24.2,15,24,15,23.8c0-0.8-0.5-1.5,0.4-2c0.1-0.2-0.2-0.4-0.3-0.5
			c-0.2-0.4,0.4-0.5,0.5-0.8c-0.2-0.4-0.4-0.8-0.3-1.3c0.3-0.6,1-0.4,1.5-0.8c0.2-0.1,0.3-0.4,0.2-0.6c-0.7-1.1-1.5-2.2-2.3-3.4
			c0,0-0.1-0.1-0.1-0.1c-0.1-0.6,0.6-0.9,0.6-1.5C15.2,10.8,13.1,5.7,10,5z M13.8,5.1c2.2,2.3,3.4,5.8,3.5,7.5v0.2
			c0,0.5-0.2,0.9-0.4,1.2c0.5,0.8,1.1,1.6,1.6,2.4l0.2,0.3l0.1,0.2l0.1,0.2c0.4,1,0,2.2-0.8,2.9l0,0l0,0c-0.1,0.1-0.2,0.2-0.3,0.2
			l-0.1,0.5c0,0.2-0.1,0.5-0.2,0.6c0.1,0.7-0.2,1.3-0.3,1.4L16.9,23c0,0.2,0.1,0.4,0.1,0.7c0,0.1,0,0.3,0,0.6l0.1,0
			c4.6-1.5,7.9-5.1,7.9-9.3C25,9.8,20.1,5.6,13.8,5.1z M18.2,8.3c2.9,1.4,4.8,4,4.8,6.7c0,2-1,3.9-2.8,5.4c0.8-1.2,1-2.7,0.5-4.1
			l-0.1-0.2l-0.1-0.2l-0.1-0.2l-0.1-0.2l-0.2-0.3l0-0.1l-1-1.4c0.1-0.3,0.1-0.6,0.1-0.9l0-0.2l0-0.1l0-0.1
			C19.2,11.3,18.8,9.8,18.2,8.3z M6.5,13C7.3,13,8,13.7,8,14.5S7.3,16,6.5,16C5.7,16,5,15.3,5,14.5S5.7,13,6.5,13z"/>
		</g>
	</symbol>
	<symbol id="icon-4" viewBox="0 0 522.5 522.5" style="enable-background:new 0 0 522.5 522.5;" xml:space="preserve">
	<style type="text/css">
		.st0{fill:#FFFFFF;}
	</style>
	<g>
		<path class="st0" d="M511.6,217.7h-62.2c-4.4-17.2-9.9-36.3-16.9-50.8l44.2-44.2c2-2,3.2-4.8,3.2-7.7c0-2.9-1.2-5.7-3.2-7.7
			l-61.6-61.5c-4.2-4.3-11.1-4.3-15.4,0L355.5,90C341,82.9,321.9,77.4,304.8,73V10.9c0-6-4.9-10.9-10.9-10.9h-65.3
			c-6,0-10.9,4.9-10.9,10.9V73c-17.2,4.4-36.3,9.9-50.7,16.9l-44.3-44.2c-4.2-4.3-11.1-4.3-15.4,0l-61.6,61.5
			c-4.2,4.2-4.2,11.1,0,15.4L90,166.9c-7,14.4-12.6,33.5-17,50.7H10.9c-6,0-10.9,4.9-10.9,10.9v65.3c0,6,4.9,10.9,10.9,10.9H73
			c4.4,17.2,9.9,36.3,17,50.8l-44.3,44.3c-2,2-3.2,4.8-3.2,7.7c0,2.9,1.2,5.7,3.2,7.7l61.6,61.6c4.1,4.1,11.3,4.1,15.4,0l44.3-44.2
			c14.4,7,33.5,12.6,50.8,16.9v62.1c0,6,4.9,10.9,10.9,10.9h65.3c6,0,10.9-4.9,10.9-10.9v-62.1c17.2-4.4,36.3-9.9,50.7-16.9
			l44.3,44.2c4.2,4.2,11.1,4.2,15.4,0l61.6-61.6c4.2-4.2,4.2-11.1,0-15.4l-44.2-44.3c7-14.5,12.6-33.5,16.9-50.8h62.1
			c6,0,10.9-4.9,10.9-10.9v-65.3C522.5,222.6,517.6,217.7,511.6,217.7z M261.2,348.3c-48,0-87.1-39.1-87.1-87.1s39.1-87.1,87.1-87.1
			s87.1,39.1,87.1,87.1S309.3,348.3,261.2,348.3z"/>
	</g>
	</symbol>
</svg>