<?xml version="1.0" encoding="utf-8"?>
<!-- Generator: Adobe Illustrator 21.1.0, SVG Export Plug-In . SVG Version: 6.00 Build 0)  -->
<svg version="1.1" id="Слой_1" xmlns="http://www.w3.org/2000/svg" xmlns:xlink="http://www.w3.org/1999/xlink" x="0px" y="0px"
	 viewBox="0 0 32 32" style="enable-background:new 0 0 32 32;" xml:space="preserve">
<style type="text/css">
	.st0{fill:#FFFFFF;}
</style>
<g id="surface1">
	<path class="st0" d="M12.5,3c0,0-2.3,0-4.4,0.4C6.6,3.6,6.6,4.3,6.4,4.9l-1.4,6.4C3.9,11.9,3,13.1,3,14.5C3,16.4,4.6,18,6.5,18
		s3.5-1.6,3.5-3.5c0-1.4-0.8-2.6-2-3.1V4.5C8,4.5,9.8,4,12.5,4H13c7.8,0,14,5.4,14,12s-6.3,12-14,12h-0.5c-2,0-3.7-0.3-5.4-0.9
		c-0.2,0.1-0.6,0.3-0.8,0.4C8.9,29.1,13,29,13,29h0.4c0.5,0,0.9,0,1.4-0.1C22.8,28.2,29,22.7,29,16C29,8.8,22,3,12.5,3z M10,5l0,6
		c2.1,1.5,3,4.4,3,6.6c0,4-1.4,6-2.4,7.1c3.1,0.6,4,0.1,4.3-0.4C15,24.2,15,24,15,23.8c0-0.8-0.5-1.5,0.4-2c0.1-0.2-0.2-0.4-0.3-0.5
		c-0.2-0.4,0.4-0.5,0.5-0.8c-0.2-0.4-0.4-0.8-0.3-1.3c0.3-0.6,1-0.4,1.5-0.8c0.2-0.1,0.3-0.4,0.2-0.6c-0.7-1.1-1.5-2.2-2.3-3.4
		c0,0-0.1-0.1-0.1-0.1c-0.1-0.6,0.6-0.9,0.6-1.5C15.2,10.8,13.1,5.7,10,5z M13.8,5.1c2.2,2.3,3.4,5.8,3.5,7.5v0.2
		c0,0.5-0.2,0.9-0.4,1.2c0.5,0.8,1.1,1.6,1.6,2.4l0.2,0.3l0.1,0.2l0.1,0.2c0.4,1,0,2.2-0.8,2.9l0,0l0,0c-0.1,0.1-0.2,0.2-0.3,0.2
		l-0.1,0.5c0,0.2-0.1,0.5-0.2,0.6c0.1,0.7-0.2,1.3-0.3,1.4L16.9,23c0,0.2,0.1,0.4,0.1,0.7c0,0.1,0,0.3,0,0.6l0.1,0
		c4.6-1.5,7.9-5.1,7.9-9.3C25,9.8,20.1,5.6,13.8,5.1z M18.2,8.3c2.9,1.4,4.8,4,4.8,6.7c0,2-1,3.9-2.8,5.4c0.8-1.2,1-2.7,0.5-4.1
		l-0.1-0.2l-0.1-0.2l-0.1-0.2l-0.1-0.2l-0.2-0.3l0-0.1l-1-1.4c0.1-0.3,0.1-0.6,0.1-0.9l0-0.2l0-0.1l0-0.1
		C19.2,11.3,18.8,9.8,18.2,8.3z M6.5,13C7.3,13,8,13.7,8,14.5S7.3,16,6.5,16C5.7,16,5,15.3,5,14.5S5.7,13,6.5,13z"/>
</g>
</svg>
