
<svg style="display:none">

	<symbol id="icon-1" x="0px" y="0px"
	 viewBox="0 0 50 50" style="enable-background:new 0 0 50 50;" xml:space="preserve">
	<style type="text/css">
	.st0{fill:#FFFFFF;}
	</style>
	<path id="VK_1_" class="st0" d="M26,34c1,0,1-1.4,1-2c0-1,1-2,2-2s2.7,1.7,4,3c1,1,1,1,2,1s3,0,3,0s2-0.1,2-2c0-0.6-0.7-1.7-3-4
	c-2-2-3-1,0-5c1.8-2.5,3.2-4.7,3-5.3c-0.2-0.6-5.3-1.6-6-0.7c-2,3-2.4,3.7-3,5c-1,2-1.1,3-2,3s-1-1.9-1-3c0-3.3,0.5-5.6-1-6
	c0,0-2,0-3,0c-1.6,0-3,1-3,1s-1.2,1-1,1c0.3,0,2-0.4,2,1c0,1,0,2,0,2s0,4-1,4s-3-4-5-7c-0.8-1.2-1-1-2-1c-1.1,0-2,0-3,0
	s-1.1,0.6-1,1c2,5,3.4,8.1,7.2,12.1c3.5,3.6,5.8,3.8,7.8,3.9C25.5,34,25,34,26,34z"/>
	<path class="st0" d="M25,1C11.7,1,1,11.7,1,25s10.7,24,24,24s24-10.7,24-24S38.3,1,25,1z M25,44C14.5,44,6,35.5,6,25S14.5,6,25,6
	s19,8.5,19,19S35.5,44,25,44z"/>
	</symbol>

	<symbol id="icon-2" viewBox="0 0 32 32">
	<g id="surface1">
	<path style=" " d="M 6.5 5 L 5 9 L 5 25 L 10.5 25 L 10.5 28 L 13.5 28 L 16.5 25 L 21 25 L 27 19 L 27 5 Z M 9 7 L 25 7 L 25 18 L 22 21 L 16 21 L 13 24 L 13 21 L 9 21 Z M 14 11 L 14 17 L 16 17 L 16 11 Z M 19 11 L 19 17 L 21 17 L 21 11 Z "/>
	</g>
	</symbol>

	<symbol id="icon-3" viewBox="0 0 32 32">
	<g id="surface1">
	<path style=" " d="M 12.5 3 C 12.5 3 10.25 3 8.125 3.375 C 6.621094 3.640625 6.597656 4.320313 6.433594 4.894531 L 5.066406 11.3125 C 3.851563 11.863281 3 13.078125 3 14.5 C 3 16.433594 4.566406 18 6.5 18 C 8.433594 18 9.992188 16.433594 9.992188 14.5 C 9.992188 13.105469 9.175781 11.914063 8 11.351563 L 8 4.5 C 8 4.5 9.75 4 12.5 4 L 13 4 C 20.75 4 27 9.371094 27 16 C 27 22.628906 20.730469 28 13 28 L 12.5 28 C 10.546875 28 8.832031 27.703125 7.125 27.125 C 6.902344 27.253906 6.542969 27.449219 6.3125 27.5625 C 8.875 29.125 13 28.988281 13 28.988281 L 13.4375 28.988281 C 13.902344 28.988281 14.378906 28.964844 14.855469 28.90625 C 22.816406 28.15625 29 22.667969 29 16 C 29 8.820313 22 3 12.5 3 Z M 10 5 L 10.007813 11.015625 C 12.082031 12.539063 13 15.375 13 17.625 C 13 21.625 11.625 23.625 10.613281 24.730469 C 13.671875 25.292969 14.613281 24.808594 14.875 24.375 C 14.992188 24.167969 15 23.960938 15 23.75 C 15 23 14.476563 22.296875 15.359375 21.757813 C 15.488281 21.527344 15.167969 21.40625 15.074219 21.230469 C 14.886719 20.8125 15.523438 20.742188 15.574219 20.390625 C 15.378906 19.976563 15.164063 19.570313 15.300781 19.082031 C 15.5625 18.4375 16.308594 18.683594 16.78125 18.332031 C 16.949219 18.191406 17.050781 17.929688 16.972656 17.714844 C 16.226563 16.59375 15.5 15.5 14.679688 14.273438 C 14.65625 14.242188 14.625 14.125 14.625 14.125 C 14.5 13.503906 15.203125 13.203125 15.234375 12.613281 C 15.164063 10.800781 13.074219 5.675781 10 5 Z M 13.757813 5.050781 C 15.953125 7.328125 17.167969 10.847656 17.234375 12.535156 L 17.234375 12.730469 C 17.203125 13.234375 17.042969 13.640625 16.871094 13.953125 C 17.414063 14.769531 17.925781 15.535156 18.4375 16.308594 L 18.636719 16.605469 L 18.765625 16.796875 L 18.84375 17.011719 C 19.21875 18.011719 18.890625 19.191406 18.046875 19.882813 L 18.011719 19.910156 L 17.972656 19.9375 C 17.859375 20.023438 17.742188 20.097656 17.628906 20.15625 L 17.554688 20.671875 C 17.519531 20.914063 17.453125 21.128906 17.363281 21.3125 C 17.472656 22.007813 17.199219 22.566406 17.109375 22.722656 L 16.9375 23.042969 C 16.96875 23.246094 17 23.484375 17 23.75 C 17 23.878906 16.996094 24.085938 16.957031 24.339844 L 17.0625 24.300781 C 21.707031 22.84375 25 19.234375 25 15 C 25 9.816406 20.070313 5.554688 13.757813 5.050781 Z M 18.15625 8.28125 C 21.066406 9.726563 23 12.234375 23 15 C 23 17.039063 21.984375 18.945313 20.242188 20.390625 C 21.019531 19.195313 21.226563 17.664063 20.71875 16.3125 L 20.636719 16.09375 L 20.558594 15.878906 L 20.429688 15.6875 L 20.300781 15.5 L 20.105469 15.199219 L 20.066406 15.144531 L 19.101563 13.695313 C 19.167969 13.414063 19.210938 13.128906 19.230469 12.839844 L 19.238281 12.652344 L 19.234375 12.558594 L 19.230469 12.460938 C 19.1875 11.324219 18.808594 9.816406 18.15625 8.28125 Z M 6.5 13 C 7.320313 13 7.992188 13.671875 7.992188 14.5 C 7.992188 15.328125 7.320313 16 6.5 16 C 5.671875 16 5 15.328125 5 14.5 C 5 13.671875 5.671875 13 6.5 13 Z "/>
	</g>
	</symbol>

</svg>